<svg xmlns="http://www.w3.org/2000/svg" viewBox="0 0 400 400" width="400" height="400" preserveAspectRatio="xMidYMid slice"><defs><radialGradient id="g" cx="50%" cy="42%" r="70%"><stop offset="0" stop-color="#FDF9EC"/><stop offset="1" stop-color="#FBF4DC"/></radialGradient></defs><rect width="400" height="400" fill="url(#g)"/><ellipse cx="200" cy="346" rx="130" ry="16" fill="#CEC8B4" opacity="0.35"/>
    <rect x="182" y="64" width="36" height="30" rx="5" fill="#8C5A2B"/>
    <path d="M188 92 L212 92 L218 132 Q268 150 268 200 L268 318 Q268 336 250 336 L150 336 Q132 336 132 318 L132 200 Q132 150 182 132 Z" fill="#EFD480" opacity="0.95"/>
    <path d="M136 190 L264 190 L264 318 Q264 332 250 332 L150 332 Q136 332 136 318 Z" fill="#E8C24A"/>
    <rect x="150" y="222" width="100" height="62" rx="8" fill="#FFFFFF" opacity="0.92"/>
    <rect x="166" y="238" width="68" height="10" rx="5" fill="#8C5A2B"/>
    <path d="M150 164 L150 316" stroke="#FFFFFF" stroke-width="8" stroke-linecap="round" opacity="0.4"/></svg>
